<svg xmlns="http://www.w3.org/2000/svg" xmlns:xlink="http://www.w3.org/1999/xlink" id="Layer_1" width="400" height="120" x="0" y="0" enable-background="new 0 0 400 120" version="1.1" viewBox="0 0 400 120" xml:space="preserve"><style type="text/css">.st0{fill:#000;width:16px;height:16px}.st1,.st2{stroke-linecap:round}.st1{fill:none;stroke:#000;stroke-width:1.5}.st2{stroke-width:2}.st2,.st3{fill:none;stroke:#000}.st4{fill:#231f20}.st5{opacity:.75;enable-background:new}.st5,.st6{fill:none;stroke:#000;stroke-width:5}.st7{opacity:.4}.st10,.st11,.st12,.st13,.st7,.st8,.st9{fill:#000;enable-background:new}.st8{opacity:.6}.st9{opacity:.8}.st10{opacity:.9}.st11{opacity:.3}.st12{opacity:.5}.st13{opacity:.7}</style><g id="controls"><g id="play"><path d="M16.5,8.5c0.3,0.1,0.4,0.5,0.2,0.8c-0.1,0.1-0.1,0.2-0.2,0.2l-11.4,7c-0.5,0.3-0.8,0.1-0.8-0.5V2 c0-0.5,0.4-0.8,0.8-0.5L16.5,8.5z" class="st0"/></g><g id="pause"><g><path d="M24,1h2.2c0.6,0,1,0.4,1,1v14c0,0.6-0.4,1-1,1H24c-0.6,0-1-0.4-1-1V2C23,1.5,23.4,1,24,1z" class="st0"/><path d="M33.8,1H36c0.6,0,1,0.4,1,1v14c0,0.6-0.4,1-1,1h-2.2c-0.6,0-1-0.4-1-1V2C32.8,1.5,33.2,1,33.8,1z" class="st0"/></g></g><g id="fullscreen"><g id="enter"><path d="M81,1.4c0-0.6,0.4-1,1-1h5.4c0.6,0,0.7,0.3,0.3,0.7l-6,6C81.3,7.5,81,7.4,81,6.8V1.4z" class="st0"/><path d="M81,17.2c0,0.6,0.4,1,1,1h5.4c0.6,0,0.7-0.3,0.3-0.7l-6-6c-0.4-0.4-0.7-0.3-0.7,0.3L81,17.2z" class="st0"/><path d="M98.8,1.4c0-0.6-0.4-1-1-1h-5.4c-0.6,0-0.7,0.3-0.3,0.7l6,6c0.4,0.4,0.7,0.3,0.7-0.3 C98.8,6.8,98.8,1.4,98.8,1.4z" class="st0"/><path d="M98.8,17.2c0,0.6-0.4,1-1,1h-5.4c-0.6,0-0.7-0.3-0.3-0.7l6-6c0.4-0.4,0.7-0.3,0.7,0.3 C98.8,11.8,98.8,17.2,98.8,17.2z" class="st0"/></g><g id="exit"><g><path d="M112.7,5c0,0.6,0.4,1,1,1h4.1c0.6,0,0.7-0.3,0.3-0.7l-4.7-4.7c-0.4-0.4-0.7-0.3-0.7,0.3 C112.7,0.9,112.7,5,112.7,5z" class="st0"/><path d="M105.6,6c0.6,0,1-0.4,1-1V0.9c0-0.6-0.3-0.7-0.7-0.3l-4.7,4.7c-0.4,0.4-0.3,0.7,0.3,0.7L105.6,6z" class="st0"/><path d="M106.6,13.1c0-0.6-0.4-1-1-1h-4.1c-0.6,0-0.7,0.3-0.3,0.7l4.7,4.7c0.4,0.4,0.7,0.3,0.7-0.3 C106.6,17.2,106.6,13.1,106.6,13.1z" class="st0"/><path d="M113.7,12.1c-0.6,0-1,0.4-1,1v4.1c0,0.5,0.3,0.7,0.7,0.3l4.7-4.7c0.4-0.4,0.3-0.7-0.3-0.7H113.7z" class="st0"/></g></g></g><g id="volume"><g id="unmuted"><path d="M67,5.8c-0.5,0.4-1.2,0.6-1.8,0.6H62c-0.6,0-1,0.4-1,1v5.7c0,0.6,0.4,1,1,1h3.2c0.3,0,0.7,0,1,0 c0.3,0.2,0.5,0.4,0.8,0.6l3.5,2.6c0.4,0.3,0.8,0.1,0.8-0.4V3.5c0-0.5-0.4-0.7-0.8-0.4L67,5.8z" class="st0"/><path d="M73.9,2.5c0,0,3.9-0.8,3.9,7.7S73.9,18,73.9,18" class="st1"/><path d="M72.6,6.4c0,0,2.6-0.4,2.6,3.8s-2.6,3.9-2.6,3.9" class="st1"/></g><g id="muted"><path d="M47,5.8c-0.5,0.4-1.2,0.6-1.8,0.6H42c-0.6,0-1,0.4-1,1v5.7c0,0.6,0.4,1,1,1h3.2c0.3,0,0.7,0,1,0 c0.3,0.2,0.5,0.4,0.8,0.6l3.5,2.6c0.4,0.3,0.8,0.1,0.8-0.4V3.5c0-0.5-0.4-0.7-0.8-0.4L47,5.8z" class="st0"/><line x1="52.8" x2="58.2" y1="7" y2="12.4" class="st2"/><line x1="52.8" x2="58.2" y1="12.4" y2="7" class="st2"/></g></g><g id="closed_captions"><path d="M128.7,8.6c-6.2-4.2-6.5,7.8,0,3.9" class="st3"/><path d="M135.2,8.6c-6.2-4.2-6.5,7.8,0,3.9" class="st3"/><path d="M122.2,3.4h15.7v13.1h-15.7V3.4z M120.8,2v15.7h18.3V2H120.8z" class="st0"/></g><g><path d="M143.2,3h14c1.1,0,2,0.9,2,2v10c0,1.1-0.9,2-2,2h-14c-1.1,0-2-0.9-2-2V5C141.2,3.9,142.1,3,143.2,3z" class="st0"/><path d="M146.4,13.8c-0.8,0-1.6-0.4-2.1-1c-1.1-1.4-1-3.4,0.1-4.8c0.5-0.6,2-1.7,4.6,0.2L148.4,9 c-1.4-1-2.6-1.1-3.3-0.3c-0.8,1-0.8,2.4-0.1,3.5c0.7,0.9,1.9,0.8,3.4-0.1l0.5,0.9C148.2,13.5,147.3,13.7,146.4,13.8z" class="st4"/><path d="M153.9,13.8c-0.8,0-1.6-0.4-2.1-1c-1.1-1.4-1-3.4,0.1-4.8c0.5-0.6,2-1.7,4.6,0.2L156,9 c-1.4-1-2.6-1.1-3.3-0.3c-0.8,1-0.8,2.4-0.1,3.5c0.7,0.9,1.9,0.8,3.4-0.1l0.5,0.9C155.7,13.5,154.8,13.7,153.9,13.8z" class="st4"/></g></g><g id="big_play"><g id="big_play_opaque"><path d="M60.3,77c0.6,0.2,0.8,0.8,0.6,1.4c-0.1,0.3-0.3,0.5-0.6,0.6L30,96.5c-1,0.6-1.7,0.1-1.7-1v-35 c0-1.1,0.8-1.5,1.7-1L60.3,77z" class="st0"/><path d="M2.5,79c0-20.7,16.8-37.5,37.5-37.5S77.5,58.3,77.5,79S60.7,116.5,40,116.5S2.5,99.7,2.5,79L2.5,79z" class="st5"/></g><g id="big_play_hover"><path d="M140.3,77c0.6,0.2,0.8,0.8,0.6,1.4c-0.1,0.3-0.3,0.5-0.6,0.6L110,96.5c-1,0.6-1.7,0.1-1.7-1v-35 c0-1.1,0.8-1.5,1.7-1L140.3,77z" class="st0"/><path d="M82.5,79c0-20.7,16.8-37.5,37.5-37.5s37.5,16.8,37.5,37.5s-16.8,37.5-37.5,37.5S82.5,99.7,82.5,79z" class="st6"/></g><g id="loading"><circle cx="201.9" cy="47.1" r="8.1" class="st0"/><circle cx="233.9" cy="79" r="5" class="st7"/><circle cx="201.9" cy="110.9" r="6" class="st8"/><circle cx="170.1" cy="79" r="7" class="st9"/><circle cx="178.2" cy="56.3" r="7.5" class="st10"/><circle cx="226.3" cy="56.1" r="4.5" class="st11"/><circle cx="225.8" cy="102.8" r="5.5" class="st12"/><circle cx="178.2" cy="102.8" r="6.5" class="st13"/></g></g><g id="replay"><path d="M178,9.4c0,0.4-0.4,0.7-0.9,0.7c-0.1,0-0.2,0-0.2-0.1l-4.9-1.8c-0.5-0.2-0.6-0.6-0.1-0.8l6.2-3.6 c0.5-0.3,0.8-0.1,0.7,0.5L178,9.4z" class="st0"/><path d="M169.4,15.9c-1,0-2-0.2-2.9-0.7c-2-1-3.2-3-3.2-5.2c0.1-3.4,2.9-6,6.3-6c2.5,0.1,4.8,1.7,5.6,4.1l0.1-0.1 l2.1,1.1c-0.6-4.4-4.7-7.5-9.1-6.9c-3.9,0.6-6.9,3.9-7,7.9c0,2.9,1.7,5.6,4.3,7c1.2,0.6,2.5,0.9,3.8,1c2.6,0,5-1.2,6.6-3.3 l-1.8-0.9C173,15.1,171.2,15.9,169.4,15.9z" class="st0"/></g><g id="chapters"><path d="M183.4,3.2L183.4,3.2c0.8,0,1.5,0.7,1.5,1.5l0,0c0,0.8-0.7,1.5-1.5,1.5l0,0c-0.8,0-1.5-0.7-1.5-1.5l0,0 C181.9,3.8,182.6,3.2,183.4,3.2z" class="st0"/><path d="M188.5,3.2h8.5c0.9,0,1.5,0.7,1.5,1.5l0,0c0,0.8-0.7,1.5-1.5,1.5h-8.5c-0.9,0-1.5-0.7-1.5-1.5l0,0 C186.9,3.8,187.6,3.2,188.5,3.2z" class="st0"/><path d="M183.4,8.2L183.4,8.2c0.8,0,1.5,0.7,1.5,1.5l0,0c0,0.8-0.7,1.5-1.5,1.5l0,0c-0.8,0-1.5-0.7-1.5-1.5l0,0 C181.9,8.8,182.6,8.2,183.4,8.2z" class="st0"/><path d="M188.5,8.2h8.5c0.9,0,1.5,0.7,1.5,1.5l0,0c0,0.8-0.7,1.5-1.5,1.5h-8.5c-0.9,0-1.5-0.7-1.5-1.5l0,0 C186.9,8.8,187.6,8.2,188.5,8.2z" class="st0"/><path d="M183.4,13.2L183.4,13.2c0.8,0,1.5,0.7,1.5,1.5l0,0c0,0.8-0.7,1.5-1.5,1.5l0,0c-0.8,0-1.5-0.7-1.5-1.5l0,0 C181.9,13.8,182.6,13.2,183.4,13.2z" class="st0"/><path d="M188.5,13.2h8.5c0.9,0,1.5,0.7,1.5,1.5l0,0c0,0.8-0.7,1.5-1.5,1.5h-8.5c-0.9,0-1.5-0.7-1.5-1.5l0,0 C186.9,13.8,187.6,13.2,188.5,13.2z" class="st0"/></g></svg>